<svg width="23.000000" height="22.000000" viewBox="0 0 23 22" fill="none" xmlns="http://www.w3.org/2000/svg" xmlns:xlink="http://www.w3.org/1999/xlink">
	<desc>
			Created with Pixso.
	</desc>
	<defs/>
	<path id="Icon" d="M14.74 13.5L14.74 18C14.74 19.04 14.74 19.57 14.54 19.97C14.36 20.32 14.07 20.61 13.72 20.79C13.32 21 12.8 21 11.74 21L5.24 21C4.19 21 3.67 21 3.27 20.79C2.92 20.61 2.63 20.32 2.45 19.97C2.24 19.57 2.24 19.04 2.24 18L2.24 8.5M0.47 7.05C0.23 7.53 0.11 7.77 0.14 7.96C0.16 8.13 0.26 8.28 0.4 8.38C0.56 8.5 0.83 8.5 1.36 8.5L20.63 8.5C21.16 8.5 21.43 8.5 21.59 8.38C21.73 8.28 21.83 8.13 21.85 7.96C21.88 7.77 21.76 7.53 21.52 7.05L19.05 2.1C18.85 1.7 18.75 1.5 18.6 1.35C18.46 1.22 18.31 1.12 18.13 1.06C17.93 1 17.71 1 17.26 1L4.73 1C4.28 1 4.06 1 3.86 1.06C3.68 1.12 3.53 1.22 3.39 1.35C3.24 1.5 3.14 1.7 2.94 2.1L0.47 7.05ZM19.74 8.5L19.74 21M2.24 16L14.74 16" stroke="#DAD9D1" stroke-opacity="1.000000" stroke-width="2.000000" stroke-linejoin="round"/>
</svg>
