<svg width="25.000000" height="24.000000" viewBox="0 0 25 24" fill="none" xmlns="http://www.w3.org/2000/svg" xmlns:xlink="http://www.w3.org/1999/xlink">
	<desc>
			Created with Pixso.
	</desc>
	<defs/>
	<path id="矢量 92" d="M12 -0.5C13.98 -0.5 15.89 0.29 17.3 1.69C18.7 3.1 19.5 5.01 19.5 7L19.5 8.25L24.5 8.25L24.5 10.75L23.04 10.75L22.09 22.1C22.06 22.41 21.92 22.7 21.69 22.91C21.46 23.13 21.16 23.25 20.85 23.25L3.15 23.25C2.83 23.25 2.53 23.13 2.3 22.91C2.07 22.7 1.93 22.41 1.9 22.1L0.95 10.75L-0.5 10.75L-0.5 8.25L4.5 8.25L4.5 7C4.5 5.01 5.29 3.1 6.69 1.69C8.1 0.29 10.01 -0.5 12 -0.5L12 -0.5ZM13.25 13.25L10.75 13.25L10.75 18.25L13.25 18.25L13.25 13.25ZM8.25 13.25L5.75 13.25L5.75 18.25L8.25 18.25L8.25 13.25ZM18.25 13.25L15.75 13.25L15.75 18.25L18.25 18.25L18.25 13.25ZM12 2C10.71 2 9.48 2.49 8.55 3.37C7.62 4.26 7.07 5.46 7 6.75L7 7L7 8.25L17 8.25L17 7C17 5.71 16.5 4.48 15.62 3.55C14.73 2.62 13.53 2.07 12.25 2L12 2Z" fill="#DAD9D1" fill-opacity="1.000000" fill-rule="evenodd"/>
</svg>
